<svg width="1476" height="420" viewBox="0 0 1476 420" fill="none" xmlns="http://www.w3.org/2000/svg">
<path d="M121.18 0.409597C122.784 0.409597 124.35 -0.0512867 125.953 0.0469355C127.278 0.122489 128.633 -0.0210635 129.936 0.311376C131.298 0.613596 132.699 0.810036 133.993 1.35403C135.371 1.94335 136.861 2.2229 138.209 2.88778C139.625 3.56022 141.107 4.14954 142.312 5.1922C143.878 6.51437 145.504 7.79884 146.889 9.31748C148.335 11.1081 149.704 12.9668 151.09 14.8027C152.129 16.2307 153.07 17.7418 153.77 19.3587C154.485 21.3155 155.102 23.3177 155.674 25.3199C156.179 27.2616 156.698 29.2412 156.653 31.2661C156.638 34.3335 156.841 37.4011 156.804 40.4686C156.63 43.2338 156.239 45.9765 155.674 48.6889C155.441 49.5653 155.328 50.5249 154.756 51.2578C156.141 51.1973 157.496 51.5524 158.844 51.7791C159.649 51.8773 160.259 52.4364 160.989 52.7084C162.005 53.1239 163.037 53.4942 164.046 53.9399C164.828 54.2875 165.544 54.771 166.342 55.0959C167.727 55.6928 169.217 56.0555 170.55 56.7959C171.589 57.3623 172.703 57.8612 173.561 58.7148C174.698 59.8783 176.038 60.8228 177.205 61.9636C177.657 62.3944 178.003 62.9159 178.455 63.3467C179.651 64.5023 181.059 65.4467 182.076 66.7839C183.205 68.2119 184.838 69.2018 185.81 70.766C186.427 71.6803 187.134 72.5266 187.706 73.471C188.633 75.0346 189.34 76.7271 190.319 78.2686C191.215 79.3186 192.66 79.6132 193.767 80.3993C194.151 80.7313 194.67 80.5957 195.129 80.6865C196.605 80.8976 197.855 81.8046 198.954 82.7564C200.105 83.761 200.881 85.1135 201.438 86.5268C201.852 87.5921 201.844 88.763 202.213 89.8436C202.831 91.7098 203.613 93.5152 204.238 95.3814C204.54 96.2577 204.638 97.1948 205.044 98.0336C205.398 98.7964 205.849 99.5144 206.293 100.224C207.024 101.388 208.296 102.015 209.455 102.658C210.532 103.254 211.736 103.685 212.632 104.569C213.144 105.075 213.596 105.642 214.1 106.156C215.561 105.317 217.24 105.037 218.873 104.758C220.717 104.463 222.569 104.229 224.422 104.048C226.507 103.813 228.607 103.965 230.7 103.844C232.017 103.753 233.319 104.002 234.637 103.934C235.209 103.927 236.03 103.912 236.271 104.561C236.542 105.4 236.406 106.314 236.233 107.161C236.022 108.294 235.096 109.064 234.389 109.903C232.695 111.86 230.504 113.257 228.509 114.867C226.657 116.333 224.685 117.64 222.81 119.068C222.615 120.639 223.217 122.211 223.134 123.798C222.999 125.55 222.713 127.296 222.645 129.056C222.502 132.894 222.095 136.717 221.997 140.556C222.027 142.15 222.238 143.736 222.178 145.323C222.11 146.623 221.478 147.892 221.749 149.199C222.366 150.838 223.044 152.576 222.758 154.36C222.713 154.941 222.14 155.251 221.885 155.727C221.809 156.309 221.952 156.89 221.997 157.465C222.826 157.495 223.676 157.502 224.474 157.797C224.828 157.896 224.903 158.326 224.979 158.644C225.099 159.505 225.024 160.389 224.986 161.257C224.956 162.021 224.715 162.874 224.06 163.335C223.375 163.668 222.585 163.433 221.862 163.403C221.644 163.955 221.515 164.65 220.936 164.952C220.544 165.111 219.852 164.892 219.792 165.474C219.611 166.539 219.776 167.665 219.4 168.715C219.151 169.939 218.527 171.042 218.21 172.25C219.235 172.349 220.492 172.341 221.154 173.278C221.922 174.215 221.96 175.507 221.726 176.641C221.576 177.094 221.109 177.335 220.747 177.6C219.957 178.136 218.919 178.446 218 178.069C216.983 177.638 216.66 176.466 215.801 175.84C215.057 175.099 214.13 174.585 213.137 174.253C212.602 174.925 212.271 175.786 211.548 176.278C210.743 176.557 209.862 176.603 209.019 176.587C207.972 176.58 207.377 175.613 206.73 174.948C205.955 175.235 205.277 175.779 204.434 175.87C203.034 176.005 201.49 175.371 200.828 174.072C200.437 173.407 200.519 172.606 200.406 171.873C199.051 171.609 197.666 171.918 196.303 171.729C195.483 171.609 194.587 171.654 193.88 171.162C193.405 170.86 193.082 170.407 192.698 170.014C192.427 169.855 192.088 169.939 191.787 169.916C188.994 169.976 186.208 170.128 183.415 170.271C182.294 170.37 181.149 170.294 180.051 170.536C179.185 171.933 178.673 173.52 177.882 174.955C177.084 176.126 175.88 177.026 174.51 177.396C175.925 178.779 177.363 180.131 178.741 181.551C179.26 182.126 179.892 182.632 180.254 183.327C180.367 184.717 179.975 186.122 180.208 187.498C180.931 189.001 182.03 190.301 182.806 191.774C184.138 194.531 185.584 197.236 186.939 199.979C187.413 200.916 187.729 201.929 188.09 202.91C188.836 205.041 189.543 207.172 190.229 209.318C190.711 210.806 190.959 212.355 191.456 213.844C191.825 215 192.623 215.974 192.893 217.175C193.18 218.135 192.954 219.17 193.232 220.129C193.436 220.84 194.316 221.157 194.362 221.928C194.444 222.789 194.452 223.673 194.271 224.527C194.166 225.109 193.978 225.713 194.113 226.318C194.489 227.76 195.257 229.105 195.385 230.609C195.4 232.407 196.62 233.926 196.71 235.709C196.763 236.593 196.244 237.424 196.424 238.315C197.034 240.847 197.485 243.453 197.403 246.067C196.891 249.24 196.959 252.49 196.259 255.632C195.927 257.234 195.619 258.851 195.114 260.415C194.602 262.024 194.173 263.664 193.526 265.228C193.338 265.779 193.059 266.316 193.007 266.897C193.24 267.306 193.556 267.676 193.714 268.129C193.97 268.802 193.774 269.534 193.887 270.23C194.828 269.995 195.573 269.262 196.544 269.134C196.989 269.24 197.403 269.534 197.682 269.89C197.915 270.464 197.93 271.106 198.012 271.718C198.126 272.36 197.463 272.685 197.041 273.018C196.13 273.599 195.325 274.377 194.271 274.695C193.918 274.831 193.315 274.982 193.428 275.488C193.496 276.312 193.759 277.105 193.759 277.944C193.774 279.848 193.488 281.752 192.984 283.595C192.434 285.371 191.584 287.048 190.989 288.816C190.53 290.259 190.153 291.838 189.016 292.926C188.452 293.561 187.677 293.984 187.149 294.657C186.841 295.873 186.984 297.157 186.758 298.396C186.562 299.325 187.179 300.134 187.496 300.965C188.031 302.114 188.633 303.247 188.911 304.501C189.453 306.586 189.973 308.672 190.522 310.757C190.748 311.656 191.087 312.533 191.238 313.454C191.674 316.061 191.96 318.698 192.013 321.343C192.073 323.36 192.269 325.392 192.156 327.409C191.862 328.641 191.501 329.865 191.177 331.089C190.854 332.124 190.613 333.235 189.935 334.111C189.197 335.131 188.52 336.189 187.736 337.178C187.006 338.145 185.968 338.795 185.049 339.566C183.995 340.359 182.836 341.251 181.451 341.22C179.862 341.19 178.274 341.213 176.693 341.1C175.646 341.017 174.585 340.911 173.614 340.518C172.281 339.959 171.1 339.143 169.955 338.282C168.329 342.566 166.778 346.887 165.099 351.156C164.558 352.66 163.346 353.763 162.254 354.881C161.087 356.082 159.845 357.193 158.498 358.19C157.857 358.644 157.308 359.233 156.992 359.965C156.246 361.432 155.546 362.928 154.891 364.446C154.485 365.436 153.747 366.237 152.979 366.97C152.249 367.634 151.489 368.322 150.525 368.617C148.56 369.251 146.565 369.772 144.6 370.392C142.417 370.959 140.934 372.742 139.18 374.019C136.891 375.711 134.776 377.623 132.51 379.346C131.509 379.95 130.651 380.758 129.883 381.642C129.635 381.96 129.604 382.39 129.506 382.775C129.228 384.196 128.897 385.617 128.904 387.075C128.935 388.608 128.716 390.135 128.611 391.661C128.467 393.308 128.701 394.955 128.588 396.602C128.467 399.125 128.52 401.687 127.865 404.15C127.308 406.454 126.744 408.766 126.104 411.056C125.938 411.599 125.803 412.204 125.344 412.597C124.132 413.67 122.739 414.509 121.339 415.317C120.141 415.937 118.922 416.692 117.537 416.715C114.315 416.836 111.085 416.73 107.893 416.329C105.943 416.065 103.956 415.725 102.202 414.795C100.553 413.949 98.7467 413.194 97.6173 411.653C96.1266 409.605 94.8016 407.376 94.2067 404.883C93.6802 402.715 93.6123 400.471 93.3335 398.264C93.1305 396.292 92.897 394.313 92.9575 392.333C93.04 389.81 92.9422 387.294 92.9495 384.77C92.9495 382.964 92.9575 381.151 92.9495 379.346C92.9575 378.356 92.8444 377.343 92.3925 376.452C92.1064 375.862 91.6777 375.341 91.572 374.684C91.331 373.354 91.4441 371.994 91.3237 370.649C91.3237 370.301 90.9171 370.249 90.6762 370.135C87.7853 369.221 84.7891 368.67 81.8982 367.74C80.9272 367.506 80.6111 366.464 80.1592 365.7C79.3839 364.333 79.3692 362.723 78.8342 361.265C77.4793 357.163 75.8534 353.151 74.6862 348.98C74.2575 347.522 74.1218 346.003 73.7231 344.537C72.9625 341.357 71.7053 338.266 71.4644 334.972C71.3592 331.897 70.9826 328.845 70.5534 325.808C70.4855 325.49 70.4855 325.09 70.1547 324.923C69.2137 324.387 68.099 324.342 67.0602 324.1C66.2701 322.785 66.5863 321.154 66.5111 319.687C66.3906 319.687 66.157 319.695 66.0366 319.695C65.5022 320.934 65.0882 322.249 64.2371 323.33C63.2514 324.621 62.1899 325.868 61.0001 326.978C60.1948 327.757 59.1786 328.248 58.2223 328.807C56.6869 329.691 55.0079 330.416 53.2237 330.53C51.1534 330.681 49.0681 330.733 46.9979 330.53C45.5675 330.409 44.1899 329.941 42.8875 329.382C41.8788 328.935 40.9377 328.24 40.4409 327.243C39.6579 325.694 39.0482 324.04 38.7846 322.324C38.6793 320.572 38.9729 318.811 39.3417 317.104C39.8085 315.426 40.5237 313.832 41.1711 312.223C41.6379 310.999 42.3229 309.888 42.9101 308.725C44.1146 306.556 45.6428 304.577 47.2463 302.688C48.6541 301.2 50.1371 299.779 51.5675 298.313C52.5687 297.248 53.8937 296.591 55.0229 295.684C55.0831 293.387 55.2563 291.083 55.1358 288.786C55.0907 287.592 55.0831 286.399 55.0154 285.204C53.698 284.751 52.5236 283.822 51.9213 282.545C51.3718 281.435 51.2663 280.18 51.0179 278.979C50.6867 277.007 50.3103 275.013 50.4157 273.01C50.6867 271.151 51.6879 269.504 52.1321 267.691C52.3053 266.822 52.0342 265.953 51.7406 265.145C51.1083 263.309 50.2275 261.563 49.58 259.727C49.0004 258.178 48.5186 256.592 47.8411 255.081C47.1108 253.335 46.3655 251.56 46.1397 249.671C45.8235 247.261 44.9201 244.896 45.2062 242.441C45.3342 241.33 45.146 240.212 45.304 239.109C45.4471 238.149 45.4772 237.175 45.3342 236.215C45.1535 235.105 45.2363 233.956 44.8825 232.883C44.6867 232.317 44.6566 231.727 44.6341 231.145C44.4308 230.745 44.0243 230.435 43.9866 229.959C43.9414 229.09 44.3178 228.191 44.9879 227.632C45.3116 227.345 45.7031 227.134 45.9966 226.801C46.0343 226.008 45.3944 225.335 45.5149 224.534C45.6127 223.665 46.2225 223.008 46.6441 222.291C45.8235 221.648 46.1623 220.507 46.343 219.638C46.5989 218.347 47.5098 217.334 47.9163 216.095C48.6917 214.115 49.5048 212.151 50.4383 210.239C51.5976 207.928 52.4332 205.457 53.7958 203.243C54.9627 201.339 56.0542 199.382 57.206 197.463C57.8462 196.375 58.6515 195.393 59.3137 194.32C60.0591 193.141 60.827 191.978 61.5124 190.762C61.655 189.764 61.2336 188.661 61.7381 187.709C63.1983 184.747 65.1408 182.012 67.4894 179.678C62.9952 177.857 58.4558 176.164 53.8786 174.563C51.6879 173.747 49.4069 173.089 47.412 171.843C47.2011 171.722 47.0129 171.563 46.7796 171.502C44.6416 171.397 42.4735 171.865 40.3656 171.374C39.6504 171.216 39.0406 170.785 38.3556 170.551C37.6329 170.294 36.9478 169.863 36.1649 169.855C34.9604 169.795 33.7182 169.757 32.5664 170.181C32.3481 171.11 32.3858 172.168 31.7458 172.946C31.3694 173.437 31.0608 174.132 30.3757 174.215C29.4573 174.336 28.5313 174.525 27.6054 174.442C26.8074 174.358 26.1976 173.739 25.8362 173.059C25.6104 172.742 25.4674 172.206 24.9856 172.236C23.7058 172.183 22.4862 172.659 21.3645 173.24C19.7008 174.034 18.0295 174.819 16.3959 175.681C15.9292 175.953 15.4248 176.233 15.1312 176.708C14.7774 177.449 15.1463 178.325 14.8527 179.073C14.3634 179.768 13.7837 180.615 12.8427 180.652C12.0221 180.69 11.1037 180.652 10.4336 180.101C9.71848 179.466 9.56036 178.439 9.51523 177.532C9.52275 176.89 9.51523 176.149 9.95187 175.635C10.5616 175.227 11.3295 175.152 12.007 174.903C12.5867 174.721 13.0234 174.276 13.475 173.89C14.544 172.976 15.6281 172.047 16.8853 171.404C18.1575 170.74 19.4298 170.06 20.5364 169.145C19.7384 168.224 18.9706 167.256 18.4662 166.138C17.8715 164.778 16.953 163.6 16.0798 162.406C15.3721 162.466 14.657 162.587 14.0397 162.958C13.7084 163.184 13.332 162.995 13.0007 162.89C13.0007 162.52 12.9179 162.089 13.2191 161.809C13.6933 161.333 14.3031 161.015 14.8075 160.577C14.6343 159.61 14.4913 158.628 14.3106 157.661C13.4374 157.276 12.4663 157.072 11.6984 156.49C10.8929 155.53 10.8552 153.853 11.8941 153.052C12.5491 152.795 13.2191 153.286 13.8138 153.521C13.746 151.035 14.0246 148.557 14.401 146.101C14.7774 144.59 14.2655 142.958 14.9204 141.492C15.47 140.389 16.14 139.347 16.953 138.425C17.9242 137.344 18.6694 136.075 19.4524 134.859C19.9266 133.695 19.4147 132.426 19.1738 131.262C18.8426 130.174 18.8953 128.89 19.6632 127.998C21.101 126.412 22.3733 124.681 23.6606 122.974C20.5439 120.889 17.1036 119.264 14.3106 116.726C13.1889 115.494 12.007 114.315 10.7498 113.22C8.70219 111.596 6.55667 110.092 4.49393 108.475C3.6809 107.871 3.13887 106.987 2.43875 106.262C1.86661 105.574 1.08368 105.007 0.790085 104.123C0.345925 102.854 -0.0756513 101.517 0.0899666 100.149C0.150192 99.7942 0.24053 99.3708 0.579294 99.1818C1.19661 98.9854 1.85156 99.0535 2.48392 99.0689C4.23798 99.2272 5.99206 99.0155 7.73854 99.1137C9.60554 99.2045 11.4575 99.4009 13.3169 99.5746C14.9581 99.7789 16.5691 100.179 18.1801 100.534C19.9869 100.882 21.4022 102.31 22.1926 103.904C23.3444 106.246 24.0596 108.785 24.5715 111.339C24.9479 113.038 24.7597 114.822 25.1813 116.514C25.5577 117.133 26.1148 117.625 26.6192 118.146C27.116 116.975 27.5075 115.743 28.1624 114.648C29.2992 113.008 31.1286 111.958 32.0921 110.19C32.717 109.193 33.2816 108.135 34.0871 107.259C35.5701 105.687 37.8436 105.204 39.3568 103.67C40.1849 102.68 40.7344 101.471 41.7131 100.61C42.7896 99.2879 44.3179 98.4945 45.6579 97.4893C45.2589 96.3184 44.8072 95.1623 44.1221 94.1276C43.5801 92.858 43.1435 91.4907 43.2188 90.0928C43.2488 88.8912 43.0682 87.6295 43.5349 86.4813C43.9641 85.378 44.4383 84.1691 45.4772 83.5045C47.4947 82.2127 49.7382 81.2682 52.0794 80.7994C53.3592 80.7086 54.6615 80.7012 55.866 80.233C55.9187 79.1751 56.107 78.1251 56.5511 77.1653C57.56 74.6646 58.6741 72.1332 60.5409 70.1388C61.7754 68.847 62.9347 67.4792 63.9888 66.0364C64.7042 65.0693 65.4417 64.1095 66.3753 63.3388C68.31 61.6843 70.3956 60.2183 72.4959 58.7755C74.0013 57.7704 75.6198 56.9695 77.1931 56.0932C79.3087 54.8994 81.6573 54.1742 83.7503 52.9426C85.0906 52.2475 86.566 51.8622 88.0115 51.4844C89.7877 51.1217 91.6019 51.0235 93.4014 50.8195C92.7991 49.0667 92.7618 47.2005 92.5656 45.3796C92.1595 41.5717 92.2347 37.7184 92.5735 33.9105C92.8596 30.5558 93.5518 27.2541 94.4103 24.0128C95.0199 21.7613 95.72 19.5022 96.9246 17.4924C97.986 15.5507 99.3037 13.7752 100.704 12.0676C101.863 10.6623 102.992 9.21923 104.362 8.01037C104.965 7.46636 105.793 7.29262 106.417 6.78641C107.012 6.31794 107.615 5.84198 108.33 5.56996C109.459 5.11664 109.986 3.94555 110.814 3.13711C111.319 2.65356 111.702 2.02646 112.304 1.65625C113.615 1.23314 114.962 0.862922 116.34 0.802482C117.951 0.651373 119.562 0.439817 121.18 0.409597ZM75.0781 105.241C74.4006 106.118 74.611 107.274 74.5131 108.301C73.994 108.966 73.3391 109.533 72.6837 110.069C71.8784 110.749 70.7343 110.749 69.9437 111.437C67.4068 113.371 65.276 115.759 62.8674 117.837C61.5498 119.521 60.4883 121.44 58.8698 122.868C55.9865 125.951 53.1333 129.079 50.0016 131.904C48.8874 133.053 47.9239 134.322 46.9979 135.622C47.5248 136.415 48.0894 137.201 48.4734 138.077C48.7896 138.803 48.9703 139.581 49.1434 140.351C49.6177 142.475 50.0995 144.598 50.4383 146.751C50.9878 146.796 51.5901 146.796 52.0493 147.144C52.4708 147.461 52.644 147.99 52.9451 148.406C53.3216 148.61 53.7657 148.655 54.1797 148.761C54.6691 148.217 55.1584 147.431 56.0091 147.544C60.067 147.884 64.102 146.962 68.1595 147.129C69.808 147.204 71.4492 146.985 73.0903 147.113C73.6247 147.136 74.2349 147.416 74.3553 147.99C74.7314 149.803 74.935 151.655 75.3111 153.468C75.4015 153.989 75.846 154.329 76.3499 154.404C76.3126 152.584 76.2521 150.763 76.4783 148.957C76.6061 148.156 76.4704 147.242 76.9448 146.547C77.9764 145.716 79.3692 145.678 80.6184 145.429C82.4705 145.044 84.3599 144.907 86.2272 144.643C86.4755 144.59 86.7464 144.567 86.9647 144.424C87.1004 143.336 86.7012 142.278 86.536 141.22C85.8054 138.009 85.7155 134.708 85.3462 131.443C85.1884 130.159 85.1579 128.852 84.857 127.583C84.5556 126.268 84.2395 124.953 83.9233 123.646C83.472 121.41 82.0113 119.544 81.5295 117.315C80.9651 114.829 80.3855 112.336 80.0467 109.812C79.9036 108.014 79.7 106.224 79.2635 104.471C79.1656 104.229 79.354 104.033 79.4518 103.836C77.9238 103.768 76.0717 103.912 75.0781 105.234M170.452 108.521C170.098 111.588 169.97 114.701 169.285 117.73C168.886 119.567 169.022 121.516 168.276 123.269C167.847 124.447 167.478 125.656 167.328 126.903C167.065 128.981 167.23 131.081 167.11 133.167C167.042 134.874 166.756 136.559 166.635 138.259C166.312 142.52 166.454 146.804 166.831 151.057C168.359 151.148 169.902 151.194 171.438 151.231C172.327 151.285 172.808 150.174 173.727 150.393C174.337 150.408 174.773 150.861 175.097 151.33C175.481 151.889 175.948 152.433 176.105 153.113C176.234 153.649 176.362 154.201 176.678 154.669C177.303 153.929 177.641 153.007 178.116 152.176C178.899 150.763 179.667 149.35 180.472 147.952C181.225 147.9 181.985 147.847 182.746 147.779C182.889 146.335 182.949 144.877 183.137 143.442C183.272 142.399 183.333 141.304 183.912 140.397C184.485 139.316 185.335 138.402 186.389 137.775C187.669 136.876 188.911 135.916 190.206 135.033C191.764 133.975 193.157 132.698 194.723 131.663C195.107 131.451 194.881 130.945 194.805 130.62C194.459 129.721 194.083 128.792 193.383 128.104C191.109 125.981 188.61 124.122 186.299 122.045C184.432 120.247 182.693 118.312 180.735 116.605C180.405 116.333 180.066 116.038 179.915 115.623C179.644 115.086 179.531 114.421 179.042 114.036C177.747 113.651 176.377 114.044 175.067 113.885C174.337 113.643 173.953 112.895 173.546 112.298C172.718 110.885 171.702 109.586 170.452 108.521ZM187.119 141.47C186.795 142.24 186.765 143.102 186.555 143.903C186.111 145.655 186.193 147.469 186.208 149.259C187.187 149.335 188.174 149.358 189.152 149.441C189.31 149.977 189.491 150.514 189.664 151.057C190.462 151.367 191.29 151.655 191.952 152.221C192.472 152.69 193.473 152.863 193.872 152.161C195.235 150.468 197.079 149.237 198.382 147.491C199.037 146.63 199.037 145.52 199.051 144.492C199.104 143.729 198.69 143.011 198.886 142.256C199.164 141.168 198.51 140.178 198.329 139.135C198.126 138.394 198.178 137.602 197.907 136.884C197.32 136.151 196.5 135.659 195.732 135.138C192.705 137.02 189.536 138.803 187.119 141.47ZM41.9616 141.447C40.9151 142.512 40.1774 143.819 39.274 144.998C39.0557 145.247 38.9578 145.618 39.1234 145.927C39.4923 146.63 40.2452 147.015 40.7194 147.65C41.284 148.421 41.6002 149.35 42.2025 150.098C42.353 150.302 42.6466 150.227 42.8649 150.265C44.2426 150.249 45.6127 150.174 46.9828 150.076C46.8473 148.277 46.4408 146.517 46.2225 144.734C46.1096 143.721 45.7557 142.762 45.3868 141.817C45.0255 140.949 44.6416 140.057 43.9941 139.354C43.0456 139.732 42.6466 140.76 41.9616 141.447ZM154.206 341.077C153.461 341.712 152.384 341.439 151.549 341.878C150.849 342.248 150.247 342.785 149.539 343.14C149.163 343.328 148.673 343.427 148.312 343.155C147.627 342.739 146.926 341.968 146.046 342.294C145.594 342.482 144.887 342.55 144.781 343.132C144.465 344.424 144.412 345.769 144.299 347.091C144.179 349.245 144.043 351.398 144.149 353.559C144.758 353.521 145.436 353.589 145.955 353.203C147.958 351.542 149.765 349.66 151.451 347.688C153.213 345.331 154.793 342.83 156.457 340.397C156.375 340.321 156.202 340.163 156.111 340.08C155.336 339.997 154.779 340.661 154.206 341.077ZM83.3889 345.837C83.3889 346.457 83.886 346.864 84.2395 347.318C85.1579 348.429 86.0689 349.547 86.9799 350.665C87.3786 351.141 87.7174 351.723 88.3423 351.942C88.3197 349.902 88.2444 347.869 88.1845 345.83C86.5886 345.83 84.9927 345.807 83.3889 345.837Z" fill="#101010"/>
<path d="M369.477 73.8579H403.794L425.45 162.605H426.992L477.825 73.8579H512.141L490.292 205.946H463.301L477.568 119.973H476.411L428.342 205.302H409.898L390.105 119.65H389.013L374.618 205.946H347.627L369.477 73.8579Z" fill="#101010"/>
<path d="M644.828 141.708C642.43 155.811 637.782 167.786 630.882 177.633C624.028 187.479 615.653 194.961 605.757 200.077C595.903 205.194 585.278 207.752 573.883 207.752C561.929 207.752 551.626 205.022 542.972 199.561C534.36 194.101 528.127 186.21 524.271 175.891C520.415 165.529 519.687 153.038 522.086 138.419C524.4 124.272 529.005 112.276 535.903 102.43C542.8 92.5402 551.219 85.0158 561.159 79.8561C571.097 74.6533 581.787 72.052 593.226 72.052C605.093 72.052 615.332 74.8039 623.943 80.3076C632.596 85.8112 638.833 93.7655 642.645 104.171C646.502 114.533 647.226 127.046 644.828 141.708ZM617.132 138.419C618.631 129.346 618.567 121.736 616.939 115.587C615.354 109.395 612.44 104.709 608.199 101.527C603.957 98.3452 598.603 96.7544 592.133 96.7544C585.107 96.7544 578.66 98.5172 572.79 102.043C566.964 105.569 562.037 110.685 558.009 117.393C554.025 124.058 551.262 132.163 549.719 141.708C548.177 150.824 548.22 158.434 549.848 164.54C551.519 170.645 554.496 175.268 558.781 178.406C563.108 181.502 568.484 183.05 574.911 183.05C581.894 183.05 588.277 181.33 594.061 177.89C599.887 174.408 604.793 169.355 608.777 162.734C612.762 156.069 615.547 147.964 617.132 138.419Z" fill="#101010"/>
<path d="M661.748 96.8832L665.605 73.8579H773.692L769.835 96.8832H729.542L711.553 205.946H684.047L702.041 96.8832H661.748Z" fill="#101010"/>
<path d="M895.245 141.708C892.847 155.811 888.198 167.786 881.305 177.633C874.445 187.479 866.07 194.961 856.173 200.077C846.322 205.194 835.696 207.752 824.3 207.752C812.345 207.752 802.042 205.022 793.389 199.561C784.776 194.101 778.544 186.21 774.688 175.891C770.831 165.529 770.107 153.038 772.505 138.419C774.818 124.272 779.421 112.276 786.32 102.43C793.22 92.5402 801.635 85.0158 811.576 79.8561C821.518 74.6533 832.206 72.052 843.641 72.052C855.511 72.052 865.753 74.8039 874.36 80.3076C883.018 85.8112 889.25 93.7655 893.062 104.171C896.918 114.533 897.648 127.046 895.245 141.708ZM867.551 138.419C869.05 129.346 868.988 121.736 867.359 115.587C865.77 109.395 862.857 104.709 858.616 101.527C854.375 98.3452 849.019 96.7544 842.55 96.7544C835.526 96.7544 829.079 98.5172 823.209 102.043C817.384 105.569 812.453 110.685 808.426 117.393C804.445 124.058 801.68 132.163 800.136 141.708C798.598 150.824 798.637 158.434 800.266 164.54C801.934 170.645 804.915 175.268 809.201 178.406C813.527 181.502 818.9 183.05 825.33 183.05C832.314 183.05 838.693 181.33 844.478 177.89C850.303 174.408 855.212 169.355 859.193 162.734C863.18 156.069 865.962 147.964 867.551 138.419Z" fill="#101010"/>
<path d="M341.303 265.21L319.453 397.298H291.627L313.477 265.21H341.303Z" fill="#101010"/>
<path d="M342.347 397.298L364.196 265.21H392.023L383.026 319.709H439.513L448.51 265.21H476.272L454.423 397.298H426.661L435.658 342.734H379.17L370.173 397.298H342.347Z" fill="#E32900"/>
<path d="M607.563 311.453H579.802C579.887 307.756 579.412 304.488 578.388 301.65C577.359 298.769 575.815 296.318 573.757 294.297C571.744 292.276 569.284 290.75 566.371 289.718C563.456 288.643 560.178 288.106 556.537 288.106C549.511 288.106 543.063 289.869 537.193 293.394C531.324 296.92 526.376 302.037 522.348 308.744C518.321 315.409 515.537 323.471 513.995 332.931C512.495 342.046 512.581 349.678 514.251 355.827C515.923 361.975 518.878 366.619 523.12 369.758C527.404 372.854 532.738 374.402 539.121 374.402C543.063 374.402 546.812 373.907 550.368 372.918C553.924 371.886 557.158 370.424 560.071 368.532C563.027 366.598 565.596 364.254 567.785 361.503C570.013 358.75 571.744 355.633 572.988 352.15H600.941C599.188 358.213 596.445 364.061 592.719 369.694C589.031 375.326 584.468 380.357 579.027 384.785C573.587 389.171 567.395 392.654 560.457 395.234C553.516 397.814 545.912 399.104 537.643 399.104C525.69 399.104 515.429 396.352 506.861 390.848C498.335 385.344 492.188 377.411 488.417 367.049C484.648 356.687 483.941 344.196 486.297 329.577C488.653 315.43 493.259 303.434 500.113 293.588C507.011 283.698 515.387 276.195 525.241 271.079C535.137 265.962 545.719 263.404 556.986 263.404C564.827 263.404 571.919 264.479 578.258 266.629C584.598 268.778 589.998 271.917 594.455 276.045C598.951 280.129 602.332 285.139 604.606 291.072C606.879 297.006 607.863 303.8 607.563 311.453Z" fill="#101010"/>
<path d="M626.423 288.235L630.28 265.21H738.368L734.516 288.235H694.223L676.228 397.298H648.722L666.716 288.235H626.423Z" fill="#101010"/>
<path d="M1052.87 397.298L1019.9 340.992H1010.4L1001.08 397.298H973.25L995.101 265.21H1022.93L1014.19 317.967H1019.78L1072.22 265.21H1106.85L1045.42 326.481L1087.38 397.298H1052.87Z" fill="#101010"/>
<path d="M1114.36 288.235L1118.21 265.21H1226.31L1222.45 288.235H1182.16L1164.16 397.298H1136.66L1154.65 288.235H1114.36Z" fill="#101010"/>
<path d="M1347.86 333.059C1345.46 347.163 1340.81 359.137 1333.91 368.984C1327.06 378.83 1318.68 386.312 1308.79 391.429C1298.93 396.545 1288.31 399.104 1276.92 399.104C1264.96 399.104 1254.66 396.373 1246 390.913C1237.39 385.452 1231.16 377.562 1227.3 367.242C1223.45 356.88 1222.72 344.389 1225.11 329.77C1227.43 315.624 1232.04 303.628 1238.94 293.781C1245.83 283.892 1254.25 276.367 1264.19 271.208C1274.13 266.005 1284.82 263.404 1296.26 263.404C1308.12 263.404 1318.36 266.155 1326.98 271.659C1335.63 277.163 1341.86 285.117 1345.68 295.523C1349.53 305.885 1350.26 318.397 1347.86 333.059ZM1320.16 329.77C1321.66 320.698 1321.6 313.087 1319.97 306.938C1318.38 300.747 1315.47 296.06 1311.23 292.878C1306.99 289.697 1301.63 288.106 1295.16 288.106C1288.14 288.106 1281.69 289.869 1275.82 293.394C1269.99 296.92 1265.07 302.037 1261.04 308.744C1257.05 315.409 1254.29 323.514 1252.75 333.059C1251.21 342.175 1251.25 349.786 1252.88 355.891C1254.55 361.997 1257.52 366.619 1261.81 369.758C1266.14 372.854 1271.51 374.402 1277.94 374.402C1284.92 374.402 1291.31 372.682 1297.09 369.242C1302.92 365.759 1307.82 360.707 1311.81 354.086C1315.79 347.421 1318.58 339.316 1320.16 329.77Z" fill="#101010"/>
<path d="M865.564 399.104L869.353 376.401H876.489C880.041 376.401 882.976 375.971 885.295 375.111C887.608 374.208 889.553 372.896 891.142 371.177C892.725 369.414 894.179 367.221 895.508 364.598L897.889 360.277L865.694 265.21H894.484L914.786 330.222L951.42 265.21H979.759L916.975 371.37C913.932 376.272 910.568 380.83 906.886 385.044C903.199 389.257 898.827 392.654 893.777 395.234C888.722 397.814 882.591 399.104 875.398 399.104H865.564Z" fill="#101010"/>
<path fill-rule="evenodd" clip-rule="evenodd" d="M756.17 265.21L734.318 397.298H762.148L769.273 354.472H792.606C802.763 354.472 811.715 352.602 819.468 348.861C827.227 345.12 833.521 339.917 838.362 333.253C843.248 326.545 846.415 318.785 847.874 309.97C849.288 301.198 848.689 293.459 846.076 286.751C843.503 280 839.007 274.733 832.577 270.949C826.198 267.123 818.038 265.21 808.096 265.21H756.17ZM759.512 354.472H769.273L773 332.092H791.775C797.17 332.092 801.779 331.168 805.591 329.319C809.447 327.427 812.507 324.825 814.78 321.515C817.048 318.161 818.53 314.313 819.214 309.97C819.943 305.541 819.706 301.693 818.507 298.425C817.308 295.157 815.103 292.62 811.885 290.814C808.718 288.966 804.454 288.041 799.098 288.041H780.335L773 332.092H763.177L759.512 354.472Z" fill="#101010"/>
<path d="M763.177 332.092L759.512 354.472H769.273L773 332.092H763.177Z" fill="#101010"/>
<path fill-rule="evenodd" clip-rule="evenodd" d="M1379.65 265.21L1357.8 397.298H1385.63L1392.76 354.472H1416.09C1426.25 354.472 1435.2 352.602 1442.95 348.861C1450.71 345.12 1457 339.917 1461.85 333.253C1466.73 326.545 1469.9 318.785 1471.36 309.97C1472.77 301.198 1472.17 293.459 1469.56 286.751C1466.99 280 1462.49 274.733 1456.06 270.949C1449.68 267.123 1441.52 265.21 1431.58 265.21H1379.65ZM1383 354.472H1392.76L1396.48 332.092H1415.26C1420.65 332.092 1425.26 331.168 1429.07 329.319C1432.93 327.427 1435.99 324.825 1438.26 321.515C1440.53 318.161 1442.01 314.313 1442.7 309.97C1443.43 305.541 1443.19 301.693 1441.99 298.425C1440.79 295.157 1438.59 292.62 1435.37 290.814C1432.2 288.966 1427.94 288.041 1422.58 288.041H1403.82L1396.48 332.092H1386.66L1383 354.472Z" fill="#101010"/>
<path d="M1386.66 332.092L1383 354.472H1392.76L1396.48 332.092H1386.66Z" fill="#101010"/>
</svg>
